<svg width="24" height="24" viewBox="0 0 24 24" fill="none" xmlns="http://www.w3.org/2000/svg">
    <circle cx="12" cy="12" r="11.5" fill="white" stroke="#E8E8E8"/>
    <path d="M11.0111 14.6069C11.0111 13.9169 11.0866 13.3674 11.2375 12.9583C11.3885 12.5493 11.6637 12.1476 12.0633 11.7534C12.4673 11.3542 12.7358 11.0314 12.869 10.7849C13.0022 10.5336 13.0688 10.2699 13.0688 9.99395C13.0688 9.16107 12.7225 8.74462 12.03 8.74462C11.7014 8.74462 11.4373 8.85797 11.2375 9.08468C11.0422 9.30645 10.9401 9.61447 10.9312 10.0087H9C9.00888 9.06743 9.28191 8.33065 9.81909 7.79839C10.3607 7.26613 11.0977 7 12.03 7C12.9711 7 13.7014 7.25381 14.2209 7.76142C14.7403 8.26411 15 8.97625 15 9.89785C15 10.3168 14.9156 10.7135 14.7469 11.088C14.5782 11.4577 14.283 11.8692 13.8613 12.3226L13.3219 12.8918C12.9845 13.2516 12.7913 13.6729 12.7425 14.1559L12.7159 14.6069H11.0111ZM10.818 16.8763C10.818 16.5461 10.9179 16.2751 11.1176 16.0632C11.3219 15.8463 11.5816 15.7379 11.8968 15.7379C12.212 15.7379 12.4695 15.8463 12.6693 16.0632C12.8735 16.2751 12.9756 16.5461 12.9756 16.8763C12.9756 17.2016 12.8757 17.4702 12.6759 17.6821C12.4806 17.894 12.2209 18 11.8968 18C11.5727 18 11.3108 17.894 11.111 17.6821C10.9156 17.4702 10.818 17.2016 10.818 16.8763Z" fill="#666666"/>
</svg>
