<svg width="24" height="16" viewBox="0 0 24 16" fill="none" xmlns="http://www.w3.org/2000/svg">
    <rect width="24" height="16" rx="4" fill="#FF3D00"/>
    <path d="M5.35388 12.0001H7.71888L10.1719 3.80505H8.16988L7.24588 7.54505C7.01488 8.42505 6.84988 9.26105 6.60788 10.1631H6.55288C6.32188 9.26105 6.15688 8.42505 5.91488 7.54505L4.97988 3.80505H2.90088L5.35388 12.0001Z" fill="white"/>
    <path d="M11.0142 12.0001H12.9832V3.80505H11.0142V12.0001Z" fill="white"/>
    <path d="M14.8599 12.0001H16.8289V9.28305H17.7859C19.5239 9.28305 21.0199 8.42505 21.0199 6.47805C21.0199 4.45405 19.5349 3.80505 17.7419 3.80505H14.8599V12.0001ZM16.8289 7.73205V5.36705H17.6319C18.5779 5.36705 19.1059 5.65305 19.1059 6.47805C19.1059 7.28105 18.6439 7.73205 17.6869 7.73205H16.8289Z" fill="white"/>
</svg>
