<svg xmlns="http://www.w3.org/2000/svg" width="8" height="14" viewBox="0 0 8 14" fill="none">
  <path d="M6.21181 0.39917H1.8704L0.543211 5.15973C-0.0764005 7.38225 1.59468 9.58293 3.90196 9.58293C6.23572 9.58293 7.94929 7.39146 7.3865 5.12657L6.21181 0.39917Z" fill="white"/>
  <path fill-rule="evenodd" clip-rule="evenodd" d="M1.58121 1.09937H1.87015H6.21157H6.51132L6.60397 1.38444L7.77866 4.99893L7.78316 5.0128L7.78668 5.02696C8.38048 7.41662 6.70139 9.73297 4.31432 9.97468V12.0752H6.19765V12.9004H3.90171H1.60577V12.0752H3.48911V9.97416C1.12654 9.72882 -0.509887 7.39974 0.145523 5.04881L0.149795 5.03349L0.155235 5.01854L1.48242 1.37089L1.58121 1.09937ZM2.15909 1.92457L0.936307 5.28529C0.401579 7.23975 1.87261 9.17022 3.90171 9.17022C5.96258 9.17022 7.47702 7.23944 6.98922 5.2397L5.91182 1.92457H2.15909Z" fill="#7C4CE2"/>
  <path d="M1.46226 4.99097L1.36981 5.33435C0.909885 7.04265 2.1968 8.72187 3.96594 8.72187C5.69492 8.72187 6.97444 7.11345 6.58566 5.42875L6.48463 4.99097H1.46226Z" fill="#7C4CE2"/>
</svg>
